<?xml version="1.0" encoding="utf-8"?>
<!-- Generator: Adobe Illustrator 14.0.0, SVG Export Plug-In . SVG Version: 6.00 Build 43363)  -->
<!DOCTYPE svg PUBLIC "-//W3C//DTD SVG 1.1//EN" "http://www.w3.org/Graphics/SVG/1.1/DTD/svg11.dtd">
<svg version="1.1" id="Warstwa_2" xmlns="http://www.w3.org/2000/svg" xmlns:xlink="http://www.w3.org/1999/xlink" x="0px" y="0px"
	 width="577.562px" height="930px" viewBox="0 0 577.562 930" enable-background="new 0 0 577.562 930" xml:space="preserve">
<g>
	<g>
		
			<line fill="none" stroke="#4FB9B4" stroke-miterlimit="10" stroke-dasharray="7.9769,7.9769" x1="0" y1="930" x2="577.562" y2="322.588"/>
		<line fill="none" stroke="#4FB9B4" stroke-miterlimit="10" x1="754.337" y1="136.674" x2="756.274" y2="134.638"/>
	</g>
</g>
<g>
	<g>
		<g>
			<g>
				<path fill="#94B2B3" d="M297.281,527.802l149.062-28.349l-1.481-9.833c0,0-26.651,0.501-39.057,0.201
					c-12.406-0.3-58.358-2.818-74.098-1.092C315.97,490.457,297.517,508.976,297.281,527.802z"/>
				<path fill="#B0C6C8" d="M298.466,524.438c0,0,13.826-25.003,41.297-29.666c27.852-4.733,65.316,7.013,64.878,12.386
					l-107.359,20.645L298.466,524.438z"/>
				<g>
					<g>
						<defs>
							<path id="SVGID_1_" d="M297.281,527.802l149.062-28.349l-1.481-9.833c0,0-26.651,0.501-39.057,0.201
								c-12.406-0.3-58.358-2.818-74.098-1.092C315.97,490.457,297.517,508.976,297.281,527.802z"/>
						</defs>
						<clipPath id="SVGID_2_">
							<use xlink:href="#SVGID_1_"  overflow="visible"/>
						</clipPath>
						<path opacity="0.07" clip-path="url(#SVGID_2_)" enable-background="new    " d="M450.224,493.995
							c0,0-65.704-1.741-83.94-1.464c-18.237,0.277-60.697-3.643-69.002,35.271l-21.32-39.271l119.027-29.99L450.224,493.995z"/>
					</g>
					<g>
						<defs>
							<path id="SVGID_3_" d="M297.281,527.802l149.062-28.349l-1.481-9.833c0,0-26.651,0.501-39.057,0.201
								c-12.406-0.3-58.358-2.818-74.098-1.092C315.97,490.457,297.517,508.976,297.281,527.802z"/>
						</defs>
						<clipPath id="SVGID_4_">
							<use xlink:href="#SVGID_3_"  overflow="visible"/>
						</clipPath>
						<path clip-path="url(#SVGID_4_)" fill="#8DA3A9" d="M346.697,598.604l80.195-128.81l8.635,4.929
							c0,0-10.077,24.678-14.272,36.354c-4.194,11.68-18.412,55.451-25.699,69.506S364.344,605.174,346.697,598.604z"/>
					</g>
				</g>
				<g>
					<path fill="#F39E7D" d="M449.724,498.035c3.67-3.855,2.06-10.691,2.06-10.691l-8.076,0.674
						c-1.547,0.147-2.653,1.563-2.42,3.099l1.216,7.971C444.118,500.908,448.313,499.517,449.724,498.035z"/>
					<path fill="#EF875F" d="M455.736,487.012l-3.953,0.332c6.402-0.818,6.935,7.718,6.728,12.569
						c0.82-0.552,1.316-1.525,1.181-2.574l-1.023-7.981C458.481,487.916,457.186,486.879,455.736,487.012z"/>
					<path fill="#2096AB" d="M451.783,487.344L451.783,487.344L451.783,487.344z"/>
					<path fill="#EC7343" d="M451.783,487.344L451.783,487.344c0,0,1.61,6.836-2.06,10.691c-1.408,1.481-5.605,2.873-7.221,1.049
						c0.218,1.418,1.501,2.417,2.928,2.283l11.836-0.994c0.466-0.045,0.884-0.215,1.244-0.46
						C458.718,495.062,458.186,486.525,451.783,487.344z"/>
				</g>
				<g>
					<path fill="#EC7343" d="M473.471,518.992c14.135,3.106,28.109-5.839,31.212-19.976c3.105-14.136-5.838-28.111-19.976-31.215
						c-14.136-3.102-28.111,5.84-31.213,19.978C450.392,501.917,459.334,515.891,473.471,518.992z M454.67,488.046
						c2.717-12.37,14.95-20.202,27.324-17.485c12.373,2.718,20.201,14.95,17.485,27.324c-2.715,12.374-14.947,20.202-27.323,17.487
						C459.783,512.655,451.954,500.421,454.67,488.046z"/>
					<path fill="#EF875F" d="M472.156,515.372c12.376,2.715,24.608-5.113,27.323-17.487c2.716-12.374-5.112-24.606-17.485-27.324
						c-12.374-2.717-24.607,5.115-27.324,17.485C451.954,500.421,459.783,512.655,472.156,515.372z M464.08,490.103
						c1.819-8.288,10.015-13.533,18.303-11.714c8.289,1.819,13.534,10.014,11.715,18.305c-1.819,8.288-10.016,13.532-18.305,11.714
						C467.504,506.587,462.26,498.394,464.08,490.103z"/>
				</g>
				<g>
					<g>
						<defs>
							<path id="SVGID_5_" d="M453.639,487.188l-1.263,0.106c-0.192,0.008-0.391,0.023-0.593,0.05l0,0l-8.076,0.674
								c-1.546,0.146-2.653,1.563-2.419,3.098l1.215,7.971c0.218,1.415,1.501,2.416,2.928,2.281l8.473-0.715
								c2.582,8.934,9.847,16.208,19.567,18.339c14.135,3.106,28.111-5.838,31.212-19.974c3.105-14.136-5.838-28.113-19.976-31.217
								C470.771,464.744,456.998,473.398,453.639,487.188z M494.098,496.693c-1.819,8.288-10.016,13.532-18.305,11.714
								c-8.289-1.82-13.533-10.014-11.715-18.305c1.821-8.288,10.017-13.533,18.305-11.714
								C490.672,480.208,495.917,488.402,494.098,496.693z"/>
						</defs>
						<clipPath id="SVGID_6_">
							<use xlink:href="#SVGID_5_"  overflow="visible"/>
						</clipPath>
						<path clip-path="url(#SVGID_6_)" fill="#F39E7D" d="M442.176,496.938c0,0-0.889-5.821,2.688-7.317
							c3.119-1.306,9.807-1.574,9.807-1.574s3.579-16.285,21.02-20.637l-15.788,0.151l-21.161,18.82L442.176,496.938z"/>
					</g>
				</g>
			</g>
		</g>
		<g>
			<path fill="#B0C6C8" d="M366.403,608.722l49.91-143.289l9.509,2.909c0,0-4.404,26.29-5.929,38.602
				c-1.523,12.317-5.773,58.142-9.789,73.455C406.087,595.714,385.062,611.252,366.403,608.722z"/>
			<path fill="#C0DADC" d="M369.905,608.043c0,0,26.76-10.007,35.409-36.497c8.764-26.859,2.638-65.639-2.741-65.993l-36.17,103.169
				L369.905,608.043z"/>
			<g>
				<g>
					<defs>
						<path id="SVGID_7_" d="M366.403,608.722l49.91-143.289l9.509,2.909c0,0-4.404,26.29-5.929,38.602
							c-1.523,12.317-5.773,58.142-9.789,73.455C406.087,595.714,385.062,611.252,366.403,608.722z"/>
					</defs>
					<clipPath id="SVGID_8_">
						<use xlink:href="#SVGID_7_"  overflow="visible"/>
					</clipPath>
					<path opacity="0.07" clip-path="url(#SVGID_8_)" enable-background="new    " d="M420.87,463.953
						c0,0-6.163,77.549-9.953,94.721c-3.785,17.174-6.25,41.507-44.514,50.049l12.031,22.232l72.771-57.442
						C451.206,573.513,439.769,464.035,420.87,463.953z"/>
				</g>
			</g>
			<g>
				<path fill="#EF875F" d="M425.723,464.353c-2.513-4.695-9.509-5.303-9.509-5.303l-1.89,7.879
					c-0.347,1.516,0.651,3.011,2.186,3.269l7.948,1.341C426.694,470.575,426.687,466.154,425.723,464.353z"/>
				<path fill="#3DB8C5" d="M417.138,455.188l-0.925,3.86c1.229-6.34,9.5-4.174,14.048-2.453c-0.269-0.955-1.038-1.729-2.078-1.929
					l-7.899-1.528C418.854,452.866,417.464,453.772,417.138,455.188z"/>
				<path fill="#2096AB" d="M416.214,459.05L416.214,459.05L416.214,459.05z"/>
				<path fill="#EC7343" d="M416.214,459.05L416.214,459.05c0,0,6.996,0.608,9.509,5.303c0.964,1.801,0.972,6.222-1.265,7.185
					c1.413,0.237,2.765-0.668,3.083-2.065l2.763-11.554c0.104-0.456,0.073-0.904-0.044-1.323
					C425.715,454.878,417.442,452.71,416.214,459.05z"/>
			</g>
			<g>
				<path fill="#EC7343" d="M401.155,439.162c2.758,14.208,16.507,23.491,30.716,20.735c14.209-2.755,23.492-16.508,20.734-30.717
					c-2.754-14.205-16.505-23.486-30.716-20.735C407.685,411.203,398.398,424.955,401.155,439.162z M420.489,412.039
					c12.437-2.415,24.475,5.713,26.889,18.15c2.413,12.436-5.715,24.475-18.152,26.885c-12.436,2.413-24.474-5.712-26.887-18.15
					C399.925,426.488,408.055,414.452,420.489,412.039z"/>
				<path fill="#EF875F" d="M402.339,438.922c2.413,12.439,14.451,20.563,26.887,18.152c12.438-2.411,20.563-14.45,18.15-26.886
					c-2.412-12.436-14.45-20.563-26.887-18.149C408.055,414.452,399.925,426.488,402.339,438.922z M423.956,419.087
					c8.33-1.614,16.395,3.831,18.012,12.158c1.615,8.333-3.83,16.396-12.161,18.014c-8.329,1.614-16.396-3.829-18.012-12.161
					C410.181,428.767,415.623,420.704,423.956,419.087z"/>
			</g>
			<g>
				<g>
					<defs>
						<path id="SVGID_9_" d="M401.155,439.162c1.706,8.796,7.629,15.701,15.26,19.031l-0.063,0.274
							c-0.054,0.184-0.101,0.378-0.139,0.579l0,0l-1.889,7.881c-0.347,1.515,0.651,3.01,2.185,3.27l7.949,1.341
							c1.412,0.236,2.764-0.669,3.083-2.067l2.213-9.259c0.704-0.078,1.41-0.18,2.116-0.314
							c14.209-2.756,23.492-16.508,20.735-30.717c-2.756-14.207-16.507-23.487-30.718-20.735
							C407.685,411.203,398.398,424.955,401.155,439.162z M423.956,419.087c8.33-1.614,16.395,3.831,18.012,12.158
							c1.615,8.333-3.83,16.396-12.161,18.014c-8.329,1.614-16.396-3.829-18.012-12.161
							C410.181,428.767,415.623,420.704,423.956,419.087z"/>
					</defs>
					<clipPath id="SVGID_10_">
						<use xlink:href="#SVGID_9_"  overflow="visible"/>
					</clipPath>
					<path clip-path="url(#SVGID_10_)" fill="#F39E7D" d="M420.308,470.837c0,0-7.435-0.918-3.062-12.596
						c0,0-26.315-14.462-9.897-41.532l-25.88,2.661l27.132,51.762L420.308,470.837z"/>
				</g>
			</g>
			<g>
				<path opacity="0.19" enable-background="new    " d="M408.657,498.233c0.642,1.947,2.733,2.999,4.678,2.359
					c1.942-0.644,2.998-2.736,2.357-4.681c-0.645-1.941-2.736-2.996-4.682-2.355C409.07,494.2,408.016,496.294,408.657,498.233z"/>
				<circle fill="#94B2B3" cx="412.148" cy="497.445" r="3.704"/>
				<path fill="#9CBCBD" d="M409.187,498.345c0.491,1.488,2.091,2.291,3.577,1.803c1.483-0.49,2.287-2.091,1.798-3.573
					c-0.49-1.485-2.091-2.292-3.575-1.803C409.506,495.263,408.699,496.864,409.187,498.345z"/>
				<path opacity="0.19" enable-background="new    " d="M410.066,498.75l4.556-1.502c0.265-0.088,0.408-0.372,0.322-0.637
					l-0.01-0.02c-0.085-0.268-0.371-0.411-0.634-0.323l-4.558,1.501c-0.266,0.092-0.411,0.376-0.32,0.643l0.004,0.02
					C409.515,498.694,409.799,498.839,410.066,498.75z"/>
				<path fill="#C9E3E4" d="M410.024,498.668l4.638-1.528c0.228-0.075,0.352-0.32,0.275-0.547l-0.035-0.105
					c-0.075-0.224-0.319-0.35-0.546-0.273l-4.639,1.532c-0.229,0.074-0.35,0.317-0.276,0.544l0.035,0.105
					C409.552,498.625,409.796,498.744,410.024,498.668z"/>
			</g>
		</g>
	</g>
</g>
</svg>
