<?xml version="1.0" encoding="utf-8"?>
<!-- Generator: Adobe Illustrator 14.0.0, SVG Export Plug-In . SVG Version: 6.00 Build 43363)  -->
<!DOCTYPE svg PUBLIC "-//W3C//DTD SVG 1.1//EN" "http://www.w3.org/Graphics/SVG/1.1/DTD/svg11.dtd">
<svg version="1.1" id="Warstwa_2" xmlns="http://www.w3.org/2000/svg" xmlns:xlink="http://www.w3.org/1999/xlink" x="0px" y="0px"
	 width="615px" height="930px" viewBox="0 0 615 930" enable-background="new 0 0 615 930" xml:space="preserve">
<g>
	<g>
		<g>
			<line fill="none" stroke="#4FB9B4" stroke-miterlimit="10" x1="-136.296" y1="783.496" x2="-134.361" y2="781.461"/>
			
				<line fill="none" stroke="#4FB9B4" stroke-miterlimit="10" stroke-dasharray="7.9769,7.9769" x1="0" y1="640.155" x2="639.581" y2="-32.481"/>
			<line fill="none" stroke="#4FB9B4" stroke-miterlimit="10" x1="641.51" y1="-34.511" x2="643.447" y2="-36.547"/>
		</g>
	</g>
	<g>
		<g>
			<g>
				<path fill="#94B2B3" d="M334.824,406.803l-197.558,37.572l1.962,13.032c0,0,35.324-0.663,51.765-0.266
					c16.443,0.397,77.345,3.735,98.206,1.447C310.056,456.299,334.514,431.754,334.824,406.803z"/>
				<path fill="#B0C6C8" d="M333.254,411.261c0,0-18.323,33.14-54.732,39.32c-36.914,6.271-86.568-9.297-85.986-16.417
					l142.288-27.361L333.254,411.261z"/>
				<g>
					<g>
						<defs>
							<path id="SVGID_1_" d="M334.824,406.803l-197.558,37.572l1.962,13.032c0,0,35.324-0.663,51.765-0.266
								c16.443,0.397,77.345,3.735,98.206,1.447C310.056,456.299,334.514,431.754,334.824,406.803z"/>
						</defs>
						<clipPath id="SVGID_2_">
							<use xlink:href="#SVGID_1_"  overflow="visible"/>
						</clipPath>
						<path opacity="0.07" clip-path="url(#SVGID_2_)" enable-background="new    " d="M132.122,451.609
							c0,0,87.083,2.308,111.251,1.94c24.171-0.368,80.444,4.828,91.45-46.747l28.259,52.046l-157.754,39.747L132.122,451.609z"/>
					</g>
					<g>
						<defs>
							<path id="SVGID_3_" d="M334.824,406.803l-197.558,37.572l1.962,13.032c0,0,35.324-0.663,51.765-0.266
								c16.443,0.397,77.345,3.735,98.206,1.447C310.056,456.299,334.514,431.754,334.824,406.803z"/>
						</defs>
						<clipPath id="SVGID_4_">
							<use xlink:href="#SVGID_3_"  overflow="visible"/>
						</clipPath>
						<path clip-path="url(#SVGID_4_)" fill="#8DA3A9" d="M269.332,312.967L163.043,483.684l-11.443-6.532
							c0,0,13.353-32.705,18.915-48.182c5.558-15.48,24.405-73.493,34.06-92.12C214.233,318.222,245.944,304.258,269.332,312.967z"
							/>
					</g>
				</g>
				<g>
					<path fill="#F39E7D" d="M132.785,446.254c-4.865,5.112-2.729,14.171-2.729,14.171l10.703-0.894
						c2.051-0.196,3.518-2.072,3.208-4.107l-1.612-10.563C140.213,442.447,134.652,444.291,132.785,446.254z"/>
					<path fill="#EF875F" d="M124.816,460.865l5.24-0.439c-8.487,1.083-9.19-10.229-8.917-16.659
						c-1.087,0.729-1.745,2.021-1.565,3.411l1.356,10.578C121.178,459.666,122.896,461.041,124.816,460.865z"/>
					<path fill="#2096AB" d="M130.056,460.425L130.056,460.425L130.056,460.425z"/>
					<path fill="#EC7343" d="M130.056,460.425L130.056,460.425c0,0-2.134-9.06,2.729-14.171c1.866-1.962,7.428-3.807,9.568-1.39
						c-0.287-1.878-1.987-3.202-3.878-3.025l-15.687,1.318c-0.618,0.06-1.172,0.285-1.649,0.61
						C120.865,450.196,121.569,461.508,130.056,460.425z"/>
				</g>
				<g>
					<path fill="#EC7343" d="M101.313,418.479c-18.736-4.115-37.257,7.739-41.37,26.475c-4.114,18.735,7.739,37.258,26.476,41.372
						c18.735,4.11,37.257-7.741,41.368-26.477C131.9,441.109,120.047,422.589,101.313,418.479z M126.229,459.495
						c-3.599,16.395-19.812,26.775-36.214,23.173c-16.4-3.601-26.774-19.814-23.173-36.214c3.598-16.4,19.811-26.774,36.211-23.176
						C119.452,426.878,129.829,443.092,126.229,459.495z"/>
					<path fill="#EF875F" d="M103.052,423.278c-16.4-3.599-32.613,6.775-36.211,23.176c-3.601,16.4,6.774,32.613,23.173,36.214
						c16.402,3.602,32.615-6.778,36.214-23.173C129.829,443.092,119.452,426.878,103.052,423.278z M113.757,456.768
						c-2.412,10.984-13.272,17.937-24.258,15.525c-10.986-2.41-17.938-13.271-15.525-24.26
						c2.412-10.984,13.272-17.935,24.259-15.524C109.219,434.92,116.169,445.779,113.757,456.768z"/>
				</g>
				<g>
					<g>
						<defs>
							<path id="SVGID_5_" d="M127.597,460.631l1.673-0.142c0.255-0.009,0.517-0.031,0.785-0.064l0,0l10.703-0.895
								c2.051-0.193,3.517-2.071,3.207-4.105l-1.611-10.563c-0.288-1.876-1.987-3.203-3.879-3.024l-11.23,0.947
								c-3.423-11.839-13.05-21.48-25.933-24.306c-18.735-4.117-37.258,7.738-41.369,26.473
								c-4.115,18.735,7.739,37.26,26.475,41.374C104.889,490.378,123.143,478.907,127.597,460.631z M73.974,448.033
								c2.412-10.984,13.272-17.935,24.259-15.524c10.986,2.412,17.937,13.271,15.526,24.26
								c-2.414,10.984-13.274,17.937-24.26,15.525C78.513,469.883,71.561,459.022,73.974,448.033z"/>
						</defs>
						<clipPath id="SVGID_6_">
							<use xlink:href="#SVGID_5_"  overflow="visible"/>
						</clipPath>
						<path clip-path="url(#SVGID_6_)" fill="#F39E7D" d="M142.788,447.71c0,0,1.178,7.714-3.56,9.698
							c-4.134,1.731-12.999,2.087-12.999,2.087s-4.743,21.583-27.857,27.35l20.924-0.201l28.047-24.943L142.788,447.71z"/>
					</g>
				</g>
			</g>
		</g>
		<g>
			<path fill="#B0C6C8" d="M243.213,299.556l-66.149,189.909l-12.602-3.855c0,0,5.837-34.844,7.857-51.162
				c2.021-16.325,7.652-77.058,12.975-97.353C190.619,316.796,218.483,296.202,243.213,299.556z"/>
			<path fill="#C0DADC" d="M238.572,300.456c0,0-35.467,13.263-46.928,48.372c-11.616,35.597-3.497,86.994,3.631,87.463
				l47.939-136.735L238.572,300.456z"/>
			<g>
				<g>
					<defs>
						<path id="SVGID_7_" d="M243.213,299.556l-66.149,189.909l-12.602-3.855c0,0,5.837-34.844,7.857-51.162
							c2.021-16.325,7.652-77.058,12.975-97.353C190.619,316.796,218.483,296.202,243.213,299.556z"/>
					</defs>
					<clipPath id="SVGID_8_">
						<use xlink:href="#SVGID_7_"  overflow="visible"/>
					</clipPath>
					<path opacity="0.07" clip-path="url(#SVGID_8_)" enable-background="new    " d="M171.025,491.425
						c0,0,8.169-102.779,13.19-125.538c5.018-22.761,8.286-55.011,58.999-66.333l-15.946-29.466L130.82,346.22
						C130.82,346.22,145.978,491.317,171.025,491.425z"/>
				</g>
			</g>
			<g>
				<path fill="#EF875F" d="M164.595,490.896c3.33,6.222,12.603,7.028,12.603,7.028l2.504-10.442
					c0.459-2.009-0.865-3.99-2.897-4.332l-10.534-1.776C163.306,482.649,163.318,488.509,164.595,490.896z"/>
				<path fill="#3DB8C5" d="M175.972,503.043l1.226-5.116c-1.63,8.402-12.592,5.531-18.617,3.25
					c0.355,1.265,1.376,2.291,2.752,2.556l10.47,2.025C173.697,506.119,175.54,504.919,175.972,503.043z"/>
				<path fill="#2096AB" d="M177.197,497.924L177.197,497.924L177.197,497.924z"/>
				<path fill="#EC7343" d="M177.197,497.924L177.197,497.924c0,0-9.272-0.807-12.603-7.028c-1.278-2.387-1.289-8.246,1.676-9.522
					c-1.873-0.314-3.664,0.885-4.086,2.737l-3.661,15.313c-0.138,0.604-0.097,1.198,0.059,1.753
					C164.605,503.453,175.568,506.327,177.197,497.924z"/>
			</g>
			<g>
				<path fill="#EC7343" d="M197.155,524.282c-3.654-18.83-21.878-31.134-40.71-27.482c-18.832,3.652-31.137,21.88-27.481,40.712
					c3.652,18.826,21.875,31.127,40.709,27.48C188.503,561.337,200.809,543.11,197.155,524.282z M171.531,560.229
					c-16.484,3.2-32.439-7.572-35.637-24.054c-3.197-16.482,7.574-32.438,24.058-35.632c16.482-3.2,32.436,7.568,35.634,24.055
					C198.785,541.08,188.012,557.032,171.531,560.229z"/>
				<path fill="#EF875F" d="M195.586,524.601c-3.198-16.488-19.152-27.255-35.633-24.057c-16.484,3.193-27.256,19.149-24.058,35.632
					c3.197,16.481,19.152,27.254,35.636,24.054C188.012,557.032,198.785,541.08,195.586,524.601z M166.937,550.889
					c-11.042,2.139-21.73-5.076-23.873-16.113c-2.141-11.046,5.075-21.731,16.116-23.874c11.041-2.139,21.731,5.073,23.873,16.117
					C185.193,538.061,177.979,548.746,166.937,550.889z"/>
			</g>
			<g>
				<g>
					<defs>
						<path id="SVGID_9_" d="M197.155,524.282c-2.262-11.659-10.112-20.81-20.227-25.223l0.084-0.364
							c0.073-0.244,0.133-0.502,0.185-0.767l0,0l2.504-10.446c0.459-2.008-0.864-3.988-2.896-4.333l-10.534-1.776
							c-1.873-0.313-3.664,0.888-4.086,2.739l-2.935,12.272c-0.933,0.104-1.866,0.237-2.803,0.415
							c-18.832,3.652-31.137,21.88-27.482,40.712c3.653,18.828,21.876,31.127,40.71,27.48
							C188.503,561.337,200.809,543.11,197.155,524.282z M166.937,550.889c-11.042,2.139-21.73-5.076-23.873-16.113
							c-2.141-11.046,5.075-21.731,16.116-23.874c11.041-2.139,21.731,5.073,23.873,16.117
							C185.193,538.061,177.979,548.746,166.937,550.889z"/>
					</defs>
					<clipPath id="SVGID_10_">
						<use xlink:href="#SVGID_9_"  overflow="visible"/>
					</clipPath>
					<path clip-path="url(#SVGID_10_)" fill="#F39E7D" d="M171.77,482.303c0,0,9.854,1.216,4.058,16.693
						c0,0,34.878,19.169,13.12,55.046l34.3-3.528l-35.961-68.603L171.77,482.303z"/>
				</g>
			</g>
			<g>
				<path opacity="0.19" enable-background="new    " d="M187.212,445.991c-0.85-2.579-3.623-3.974-6.199-3.125
					c-2.576,0.852-3.974,3.625-3.124,6.203c0.852,2.574,3.626,3.971,6.204,3.123C186.665,451.337,188.062,448.562,187.212,445.991z"
					/>
				<circle fill="#94B2B3" cx="182.586" cy="447.037" r="4.91"/>
				<path fill="#9CBCBD" d="M186.509,445.845c-0.65-1.974-2.771-3.038-4.739-2.39c-1.967,0.65-3.033,2.771-2.384,4.735
					c0.649,1.968,2.771,3.039,4.739,2.391C186.088,449.929,187.157,447.806,186.509,445.845z"/>
				<path opacity="0.19" enable-background="new    " d="M185.345,445.307l-6.039,1.992c-0.352,0.117-0.542,0.493-0.426,0.844
					l0.011,0.025c0.113,0.354,0.492,0.544,0.842,0.428l6.04-1.99c0.35-0.121,0.543-0.498,0.426-0.851l-0.007-0.025
					C186.075,445.38,185.698,445.188,185.345,445.307z"/>
				<path fill="#C9E3E4" d="M185.4,445.417l-6.148,2.025c-0.3,0.1-0.463,0.423-0.363,0.725l0.047,0.139
					c0.099,0.297,0.422,0.464,0.723,0.363l6.149-2.032c0.302-0.098,0.463-0.42,0.366-0.721l-0.046-0.138
					C186.028,445.474,185.703,445.316,185.4,445.417z"/>
			</g>
		</g>
	</g>
</g>
<g>
	<g>
		<line fill="none" stroke="#4FB9B4" stroke-miterlimit="10" x1="1318.97" y1="954.681" x2="1320.905" y2="952.646"/>
		
			<line fill="none" stroke="#4FB9B4" stroke-miterlimit="10" stroke-dasharray="7.9769,7.9769" x1="1324.766" y1="948.586" x2="2094.848" y2="138.704"/>
		<line fill="none" stroke="#4FB9B4" stroke-miterlimit="10" x1="2096.775" y1="136.674" x2="2098.713" y2="134.638"/>
	</g>
</g>
<g>
	<g>
		<g>
			<g>
				<path fill="#94B2B3" d="M1639.72,527.802l149.062-28.349l-1.481-9.833c0,0-26.651,0.501-39.057,0.201
					c-12.406-0.3-58.358-2.818-74.098-1.092C1658.408,490.457,1639.955,508.976,1639.72,527.802z"/>
				<path fill="#B0C6C8" d="M1640.904,524.438c0,0,13.826-25.003,41.297-29.666c27.852-4.733,65.316,7.013,64.878,12.386
					l-107.359,20.645L1640.904,524.438z"/>
				<g>
					<g>
						<defs>
							<path id="SVGID_11_" d="M1639.72,527.802l149.062-28.349l-1.481-9.833c0,0-26.651,0.501-39.057,0.201
								c-12.406-0.3-58.358-2.818-74.098-1.092C1658.408,490.457,1639.955,508.976,1639.72,527.802z"/>
						</defs>
						<clipPath id="SVGID_12_">
							<use xlink:href="#SVGID_11_"  overflow="visible"/>
						</clipPath>
						<path opacity="0.07" clip-path="url(#SVGID_12_)" enable-background="new    " d="M1792.662,493.995
							c0,0-65.704-1.741-83.94-1.464c-18.237,0.277-60.697-3.643-69.002,35.271l-21.32-39.271l119.027-29.99L1792.662,493.995z"/>
					</g>
					<g>
						<defs>
							<path id="SVGID_13_" d="M1639.72,527.802l149.062-28.349l-1.481-9.833c0,0-26.651,0.501-39.057,0.201
								c-12.406-0.3-58.358-2.818-74.098-1.092C1658.408,490.457,1639.955,508.976,1639.72,527.802z"/>
						</defs>
						<clipPath id="SVGID_14_">
							<use xlink:href="#SVGID_13_"  overflow="visible"/>
						</clipPath>
						<path clip-path="url(#SVGID_14_)" fill="#8DA3A9" d="M1689.136,598.604l80.195-128.81l8.635,4.929
							c0,0-10.077,24.678-14.272,36.354c-4.194,11.68-18.412,55.451-25.699,69.506S1706.782,605.174,1689.136,598.604z"/>
					</g>
				</g>
				<g>
					<path fill="#F39E7D" d="M1792.162,498.035c3.67-3.855,2.06-10.691,2.06-10.691l-8.076,0.674
						c-1.547,0.147-2.653,1.563-2.42,3.099l1.216,7.971C1786.557,500.908,1790.752,499.517,1792.162,498.035z"/>
					<path fill="#EF875F" d="M1798.175,487.012l-3.953,0.332c6.402-0.818,6.935,7.718,6.728,12.569
						c0.82-0.552,1.316-1.525,1.181-2.574l-1.023-7.981C1800.92,487.916,1799.624,486.879,1798.175,487.012z"/>
					<path fill="#2096AB" d="M1794.222,487.344L1794.222,487.344L1794.222,487.344z"/>
					<path fill="#EC7343" d="M1794.222,487.344L1794.222,487.344c0,0,1.61,6.836-2.06,10.691c-1.408,1.481-5.605,2.873-7.221,1.049
						c0.218,1.418,1.501,2.417,2.928,2.283l11.836-0.994c0.466-0.045,0.884-0.215,1.244-0.46
						C1801.156,495.062,1800.624,486.525,1794.222,487.344z"/>
				</g>
				<g>
					<path fill="#EC7343" d="M1815.909,518.992c14.135,3.106,28.109-5.839,31.212-19.976c3.105-14.136-5.838-28.111-19.976-31.215
						c-14.136-3.102-28.111,5.84-31.213,19.978C1792.83,501.917,1801.772,515.891,1815.909,518.992z M1797.108,488.046
						c2.717-12.37,14.95-20.202,27.324-17.485c12.373,2.718,20.201,14.95,17.485,27.324c-2.715,12.374-14.947,20.202-27.323,17.487
						C1802.222,512.655,1794.393,500.421,1797.108,488.046z"/>
					<path fill="#EF875F" d="M1814.595,515.372c12.376,2.715,24.608-5.113,27.323-17.487c2.716-12.374-5.112-24.606-17.485-27.324
						c-12.374-2.717-24.607,5.115-27.324,17.485C1794.393,500.421,1802.222,512.655,1814.595,515.372z M1806.519,490.103
						c1.819-8.288,10.015-13.533,18.303-11.714c8.289,1.819,13.534,10.014,11.715,18.305c-1.819,8.288-10.016,13.532-18.305,11.714
						C1809.942,506.587,1804.698,498.394,1806.519,490.103z"/>
				</g>
				<g>
					<g>
						<defs>
							<path id="SVGID_15_" d="M1796.077,487.188l-1.263,0.106c-0.192,0.008-0.391,0.023-0.593,0.05l0,0l-8.076,0.674
								c-1.546,0.146-2.653,1.563-2.419,3.098l1.215,7.971c0.218,1.415,1.501,2.416,2.928,2.281l8.473-0.715
								c2.582,8.934,9.847,16.208,19.567,18.339c14.135,3.106,28.111-5.838,31.212-19.974c3.105-14.136-5.838-28.113-19.976-31.217
								C1813.21,464.744,1799.437,473.398,1796.077,487.188z M1836.536,496.693c-1.819,8.288-10.016,13.532-18.305,11.714
								c-8.289-1.82-13.533-10.014-11.715-18.305c1.821-8.288,10.017-13.533,18.305-11.714
								C1833.11,480.208,1838.355,488.402,1836.536,496.693z"/>
						</defs>
						<clipPath id="SVGID_16_">
							<use xlink:href="#SVGID_15_"  overflow="visible"/>
						</clipPath>
						<path clip-path="url(#SVGID_16_)" fill="#F39E7D" d="M1784.614,496.938c0,0-0.889-5.821,2.688-7.317
							c3.119-1.306,9.807-1.574,9.807-1.574s3.579-16.285,21.02-20.637l-15.788,0.151l-21.161,18.82L1784.614,496.938z"/>
					</g>
				</g>
			</g>
		</g>
		<g>
			<path fill="#B0C6C8" d="M1708.842,608.722l49.91-143.289l9.509,2.909c0,0-4.404,26.29-5.929,38.602
				c-1.523,12.317-5.773,58.142-9.789,73.455C1748.525,595.714,1727.5,611.252,1708.842,608.722z"/>
			<path fill="#C0DADC" d="M1712.344,608.043c0,0,26.76-10.007,35.409-36.497c8.764-26.859,2.638-65.639-2.741-65.993
				l-36.17,103.169L1712.344,608.043z"/>
			<g>
				<g>
					<defs>
						<path id="SVGID_17_" d="M1708.842,608.722l49.91-143.289l9.509,2.909c0,0-4.404,26.29-5.929,38.602
							c-1.523,12.317-5.773,58.142-9.789,73.455C1748.525,595.714,1727.5,611.252,1708.842,608.722z"/>
					</defs>
					<clipPath id="SVGID_18_">
						<use xlink:href="#SVGID_17_"  overflow="visible"/>
					</clipPath>
					<path opacity="0.07" clip-path="url(#SVGID_18_)" enable-background="new    " d="M1763.309,463.953
						c0,0-6.163,77.549-9.953,94.721c-3.785,17.174-6.25,41.507-44.514,50.049l12.031,22.232l72.771-57.442
						C1793.645,573.513,1782.207,464.035,1763.309,463.953z"/>
				</g>
			</g>
			<g>
				<path fill="#EF875F" d="M1768.161,464.353c-2.513-4.695-9.509-5.303-9.509-5.303l-1.89,7.879
					c-0.347,1.516,0.651,3.011,2.186,3.269l7.948,1.341C1769.133,470.575,1769.125,466.154,1768.161,464.353z"/>
				<path fill="#3DB8C5" d="M1759.576,455.188l-0.925,3.86c1.229-6.34,9.5-4.174,14.048-2.453c-0.269-0.955-1.038-1.729-2.078-1.929
					l-7.899-1.528C1761.292,452.866,1759.902,453.772,1759.576,455.188z"/>
				<path fill="#2096AB" d="M1758.652,459.05L1758.652,459.05L1758.652,459.05z"/>
				<path fill="#EC7343" d="M1758.652,459.05L1758.652,459.05c0,0,6.996,0.608,9.509,5.303c0.964,1.801,0.972,6.222-1.265,7.185
					c1.413,0.237,2.765-0.668,3.083-2.065l2.763-11.554c0.104-0.456,0.073-0.904-0.044-1.323
					C1768.153,454.878,1759.881,452.71,1758.652,459.05z"/>
			</g>
			<g>
				<path fill="#EC7343" d="M1743.594,439.162c2.758,14.208,16.507,23.491,30.716,20.735c14.209-2.755,23.492-16.508,20.734-30.717
					c-2.754-14.205-16.505-23.486-30.716-20.735C1750.123,411.203,1740.837,424.955,1743.594,439.162z M1762.928,412.039
					c12.437-2.415,24.475,5.713,26.889,18.15c2.413,12.436-5.715,24.475-18.152,26.885c-12.436,2.413-24.474-5.712-26.887-18.15
					C1742.363,426.488,1750.493,414.452,1762.928,412.039z"/>
				<path fill="#EF875F" d="M1744.777,438.922c2.413,12.439,14.451,20.563,26.887,18.152c12.438-2.411,20.563-14.45,18.15-26.886
					c-2.412-12.436-14.45-20.563-26.887-18.149C1750.493,414.452,1742.363,426.488,1744.777,438.922z M1766.395,419.087
					c8.33-1.614,16.395,3.831,18.012,12.158c1.615,8.333-3.83,16.396-12.161,18.014c-8.329,1.614-16.396-3.829-18.012-12.161
					C1752.619,428.767,1758.062,420.704,1766.395,419.087z"/>
			</g>
			<g>
				<g>
					<defs>
						<path id="SVGID_19_" d="M1743.594,439.162c1.706,8.796,7.629,15.701,15.26,19.031l-0.063,0.274
							c-0.054,0.184-0.101,0.378-0.139,0.579l0,0l-1.889,7.881c-0.347,1.515,0.651,3.01,2.185,3.27l7.949,1.341
							c1.412,0.236,2.764-0.669,3.083-2.067l2.213-9.259c0.704-0.078,1.41-0.18,2.116-0.314
							c14.209-2.756,23.492-16.508,20.735-30.717c-2.756-14.207-16.507-23.487-30.718-20.735
							C1750.123,411.203,1740.837,424.955,1743.594,439.162z M1766.395,419.087c8.33-1.614,16.395,3.831,18.012,12.158
							c1.615,8.333-3.83,16.396-12.161,18.014c-8.329,1.614-16.396-3.829-18.012-12.161
							C1752.619,428.767,1758.062,420.704,1766.395,419.087z"/>
					</defs>
					<clipPath id="SVGID_20_">
						<use xlink:href="#SVGID_19_"  overflow="visible"/>
					</clipPath>
					<path clip-path="url(#SVGID_20_)" fill="#F39E7D" d="M1762.746,470.837c0,0-7.435-0.918-3.062-12.596
						c0,0-26.315-14.462-9.897-41.532l-25.88,2.661l27.132,51.762L1762.746,470.837z"/>
				</g>
			</g>
			<g>
				<path opacity="0.19" enable-background="new    " d="M1751.096,498.233c0.642,1.947,2.733,2.999,4.678,2.359
					c1.942-0.644,2.998-2.736,2.357-4.681c-0.645-1.941-2.736-2.996-4.682-2.355C1751.509,494.2,1750.454,496.294,1751.096,498.233z
					"/>
				<circle fill="#94B2B3" cx="1754.586" cy="497.445" r="3.704"/>
				<path fill="#9CBCBD" d="M1751.625,498.345c0.491,1.488,2.091,2.291,3.577,1.803c1.483-0.49,2.287-2.091,1.798-3.573
					c-0.49-1.485-2.091-2.292-3.575-1.803C1751.944,495.263,1751.138,496.864,1751.625,498.345z"/>
				<path opacity="0.19" enable-background="new    " d="M1752.505,498.75l4.556-1.502c0.265-0.088,0.408-0.372,0.322-0.637
					l-0.01-0.02c-0.085-0.268-0.371-0.411-0.634-0.323l-4.558,1.501c-0.266,0.092-0.411,0.376-0.32,0.643l0.004,0.02
					C1751.953,498.694,1752.237,498.839,1752.505,498.75z"/>
				<path fill="#C9E3E4" d="M1752.463,498.668l4.638-1.528c0.228-0.075,0.352-0.32,0.275-0.547l-0.035-0.105
					c-0.075-0.224-0.319-0.35-0.546-0.273l-4.639,1.532c-0.229,0.074-0.35,0.317-0.276,0.544l0.035,0.105
					C1751.99,498.625,1752.234,498.744,1752.463,498.668z"/>
			</g>
		</g>
	</g>
</g>
</svg>
