<?xml version="1.0" encoding="utf-8"?>
<!-- Generator: Adobe Illustrator 16.0.3, SVG Export Plug-In . SVG Version: 6.00 Build 0)  -->
<!DOCTYPE svg PUBLIC "-//W3C//DTD SVG 1.1//EN" "http://www.w3.org/Graphics/SVG/1.1/DTD/svg11.dtd">
<svg version="1.1" id="Warstwa_1" xmlns="http://www.w3.org/2000/svg" xmlns:xlink="http://www.w3.org/1999/xlink" x="0px" y="0px"
	 width="100px" height="100px" viewBox="0 0 100 100" enable-background="new 0 0 100 100" xml:space="preserve">
<g opacity="0.47">
	<path fill="#49BEB7" d="M53.918,64.595H37.363c-0.229-3.46-0.032-6.357,0.588-8.693c0.619-2.334,1.461-4.277,2.521-5.827
		c1.062-1.551,2.254-2.809,3.576-3.772c1.322-0.963,2.612-1.795,3.869-2.498c1.257-0.701,2.367-1.378,3.331-2.032
		c0.963-0.653,1.623-1.469,1.983-2.448c0.228-0.589,0.293-1.266,0.196-2.033c-0.098-0.767-0.434-1.494-1.004-2.18
		c-0.572-0.686-1.421-1.265-2.547-1.738c-1.127-0.474-2.589-0.71-4.384-0.71c-1.176,0-2.571,0.105-4.188,0.318
		C39.69,33.192,38,33.519,36.237,33.96c-1.764,0.44-3.503,0.979-5.217,1.616s-3.257,1.363-4.629,2.18l-2.154-19.199
		c1.208-0.719,2.571-1.462,4.09-2.229c1.518-0.767,3.19-1.452,5.021-2.058c1.828-0.604,3.82-1.102,5.975-1.492
		c2.155-0.393,4.474-0.589,6.955-0.589c4.016,0,7.812,0.556,11.388,1.666c3.575,1.11,6.701,2.742,9.38,4.897
		c2.676,2.155,4.799,4.808,6.367,7.959c1.566,3.151,2.351,6.768,2.351,10.849c0,3.103-0.441,5.592-1.322,7.469
		c-0.882,1.879-2.009,3.421-3.38,4.629c-1.372,1.209-2.906,2.221-4.604,3.036c-1.698,0.817-3.354,1.707-4.972,2.67
		c-1.615,0.963-3.102,2.147-4.456,3.551C55.673,60.318,54.637,62.212,53.918,64.595z M56.367,77.526
		c0,1.437-0.278,2.775-0.833,4.016c-0.556,1.242-1.297,2.326-2.228,3.258c-0.932,0.931-2.018,1.665-3.258,2.204
		c-1.241,0.538-2.563,0.808-3.967,0.808c-1.438,0-2.775-0.27-4.017-0.808c-1.241-0.539-2.326-1.273-3.257-2.204
		c-0.931-0.932-1.666-2.016-2.204-3.258c-0.539-1.24-0.809-2.579-0.809-4.016c0-1.404,0.27-2.743,0.809-4.017
		c0.538-1.273,1.273-2.376,2.204-3.307c0.931-0.93,2.016-1.673,3.257-2.228c1.241-0.556,2.579-0.833,4.017-0.833
		c1.403,0,2.726,0.277,3.967,0.833c1.24,0.555,2.326,1.298,3.258,2.228c0.931,0.931,1.672,2.033,2.228,3.307
		C56.089,74.783,56.367,76.122,56.367,77.526z"/>
</g>
</svg>
