<?xml version="1.0" encoding="utf-8"?>
<!-- Generator: Adobe Illustrator 14.0.0, SVG Export Plug-In . SVG Version: 6.00 Build 43363)  -->
<!DOCTYPE svg PUBLIC "-//W3C//DTD SVG 1.1//EN" "http://www.w3.org/Graphics/SVG/1.1/DTD/svg11.dtd">
<svg version="1.1" id="Warstwa_1" xmlns="http://www.w3.org/2000/svg" xmlns:xlink="http://www.w3.org/1999/xlink" x="0px" y="0px"
	 width="2270px" height="500px" viewBox="0 0 2270 500" enable-background="new 0 0 2270 500" xml:space="preserve">
<g>
	<path opacity="0.5" fill="#FCF9EB" d="M1430.176,212.578c-6.98-53.881-53.012-95.516-108.793-95.516
		c-0.348,0-0.688,0.027-1.039,0.03c-28.081-59.214-88.389-100.174-158.281-100.174c-58.534,0-110.325,28.753-142.12,72.872
		c-7.104-1.262-14.406-1.958-21.874-1.958c-53.009,0-98.244,33.18-116.143,79.894c-3.917-0.61-7.929-0.938-12.018-0.938
		c-42.603,0-77.14,34.536-77.14,77.136c0,42.603,34.537,77.137,77.14,77.137c17.332,0,33.331-5.719,46.209-15.37
		c21.886,19.197,50.548,30.861,81.951,30.861c18.139,0,35.358-3.918,50.897-10.898c30.514,25.854,69.97,41.472,113.096,41.472
		c42.878,0,82.133-15.433,112.572-41.017c14.185,6.689,30.025,10.443,46.748,10.443c21.813,0,42.12-6.391,59.208-17.363
		c11.142,10.627,26.196,17.192,42.813,17.192c34.292,0,62.094-27.799,62.094-62.093
		C1485.498,242.285,1461.28,215.954,1430.176,212.578"/>
	<path opacity="0.35" fill="#FCF9EB" d="M1721.067,403.834c-2.069-15.971-15.715-28.311-32.247-28.311
		c-0.103,0-0.205,0.008-0.307,0.008c-8.326-17.551-26.202-29.69-46.918-29.69c-17.35,0-32.7,8.522-42.122,21.599
		c-2.106-0.375-4.271-0.58-6.484-0.58c-15.713,0-29.118,9.834-34.425,23.68c-1.159-0.182-2.351-0.277-3.562-0.277
		c-12.629,0-22.863,10.236-22.863,22.861c0,12.629,10.234,22.865,22.863,22.865c5.137,0,9.88-1.695,13.696-4.557
		c6.487,5.691,14.983,9.148,24.29,9.148c5.377,0,10.479-1.162,15.087-3.23c9.045,7.662,20.738,12.291,33.52,12.291
		c12.711,0,24.347-4.574,33.369-12.157c4.203,1.983,8.899,3.097,13.855,3.097c6.463,0,12.483-1.895,17.549-5.146
		c3.305,3.148,7.765,5.095,12.689,5.095c10.166,0,18.405-8.239,18.405-18.403C1737.464,412.637,1730.287,404.834,1721.067,403.834"
		/>
	<path opacity="0.5" fill="#FCF9EB" d="M1647.328,109.399c-2.242-17.299-17.023-30.667-34.934-30.667
		c-0.11,0-0.222,0.008-0.334,0.008c-9.018-19.013-28.383-32.163-50.823-32.163c-18.794,0-35.421,9.232-45.629,23.397
		c-2.282-0.405-4.628-0.629-7.023-0.629c-17.022,0-31.545,10.653-37.293,25.653c-1.256-0.197-2.546-0.3-3.858-0.3
		c-13.68,0-24.768,11.088-24.768,24.765c0,13.679,11.088,24.769,24.768,24.769c5.565,0,10.702-1.836,14.838-4.936
		c7.027,6.165,16.231,9.91,26.313,9.91c5.822,0,11.352-1.258,16.342-3.498c9.799,8.3,22.464,13.313,36.311,13.313
		c13.77,0,26.374-4.954,36.147-13.169c4.555,2.147,9.642,3.354,15.01,3.354c7.001,0,13.523-2.052,19.011-5.575
		c3.579,3.412,8.409,5.52,13.746,5.52c11.012,0,19.938-8.925,19.938-19.937C1665.09,118.937,1657.314,110.484,1647.328,109.399"/>
	<path opacity="0.5" fill="#FCF9EB" d="M2160.849,149.424c-14.69-2.258-29.089-0.786-42.258,3.671
		c-5.482-37.994-35.155-69.592-75.065-75.725c-22.999-3.534-45.294,2.018-63.244,13.973c-9.777-9.847-22.671-16.769-37.437-19.04
		c-26.414-4.057-51.59,7.855-65.721,28.54c-2.035-0.437-4.088-0.836-6.174-1.156c-52.237-8.029-101.35,24.12-116.003,73.392
		c-30.735,1.642-57.163,24.596-62.021,56.222c-5.57,36.246,19.295,70.143,55.541,75.713c2.797,0.429,5.579,0.658,8.337,0.734
		c-0.242,1.157-0.459,2.329-0.641,3.515c-5.568,36.242,19.298,70.143,55.543,75.713c27.186,4.177,53.053-8.77,66.633-30.798
		c13.233,22.065,35.821,38.298,63.238,42.511c26.157,4.02,51.403-3.716,70.38-19.26c4.842,1.631,9.873,2.893,15.095,3.694
		c42.486,6.533,82.569-17.948,97.285-56.552c3.032,0.795,6.129,1.448,9.295,1.938c48.9,7.514,94.635-26.033,102.153-74.937
		C2243.3,202.673,2209.749,156.938,2160.849,149.424"/>
	<path opacity="0.5" fill="#FCF9EB" d="M752.955,104.352c-0.814-19.194-16.626-34.507-36.02-34.507
		c-5.573,0-10.852,1.267-15.563,3.525c-4.779-18.14-21.292-31.52-40.933-31.52c-14.043,0-26.481,6.843-34.185,17.371
		c-5.69-2.845-12.107-4.457-18.906-4.457c-23.382,0-42.335,18.955-42.335,42.335c0,0.008,0.001,0.016,0.001,0.022
		c-1.118-0.128-2.251-0.2-3.402-0.2c-16.347,0-29.6,13.251-29.6,29.6s13.252,29.601,29.6,29.601c4,0,7.81-0.797,11.292-2.234
		c4.588,10.406,14.988,17.675,27.09,17.675c7.061,0,13.54-2.477,18.627-6.602c10.354,11.209,25.174,18.237,41.636,18.237
		c13.263,0,25.451-4.568,35.105-12.2c4.425,2.633,9.592,4.149,15.113,4.149c10.987,0,20.566-5.988,25.675-14.876
		c3.943,1.944,8.374,3.041,13.067,3.041c16.346,0,29.6-13.253,29.6-29.603C778.819,118.627,767.539,106.19,752.955,104.352"/>
	<path opacity="0.5" fill="#FCF9EB" d="M544.571,248.428c-1.895-44.722-38.737-80.401-83.925-80.401
		c-12.986,0-25.283,2.951-36.261,8.211c-11.136-42.263-49.61-73.438-95.373-73.438c-32.723,0-61.701,15.945-79.648,40.474
		c-13.261-6.629-28.211-10.383-44.052-10.383c-54.478,0-98.638,44.163-98.638,98.637c0,0.019,0.002,0.037,0.002,0.052
		c-2.602-0.297-5.242-0.466-7.925-0.466c-38.09,0-68.965,30.875-68.965,68.967c0,38.091,30.875,68.969,68.965,68.969
		c9.319,0,18.198-1.858,26.309-5.205c10.689,24.244,34.924,41.181,63.12,41.181c16.453,0,31.548-5.771,43.402-15.38
		c24.124,26.117,58.654,42.49,97.01,42.49c30.901,0,59.3-10.645,81.796-28.425c10.309,6.136,22.347,9.669,35.213,9.669
		c25.597,0,47.917-13.953,59.821-34.66c9.188,4.529,19.514,7.083,30.445,7.083c38.087,0,68.967-30.88,68.967-68.973
		C604.834,281.688,578.55,252.709,544.571,248.428"/>
	<path opacity="0.35" fill="#FCF9EB" d="M769.289,438.199c-2.061-15.896-15.644-28.18-32.101-28.18
		c-0.101,0-0.203,0.007-0.306,0.007c-8.288-17.472-26.082-29.554-46.702-29.554c-17.271,0-32.55,8.482-41.93,21.5
		c-2.098-0.374-4.252-0.578-6.455-0.578c-15.642,0-28.986,9.789-34.268,23.571c-1.155-0.181-2.34-0.275-3.545-0.275
		c-12.571,0-22.759,10.188-22.759,22.757c0,12.57,10.188,22.76,22.759,22.76c5.113,0,9.834-1.686,13.635-4.535
		c6.458,5.665,14.915,9.106,24.179,9.106c5.352,0,10.432-1.156,15.018-3.214c9.004,7.627,20.643,12.232,33.367,12.232
		c12.652,0,24.235-4.551,33.216-12.1c4.184,1.973,8.86,3.081,13.792,3.081c6.434,0,12.428-1.886,17.469-5.123
		c3.29,3.136,7.729,5.071,12.632,5.071c10.12,0,18.322-8.201,18.322-18.32C785.61,446.963,778.465,439.196,769.289,438.199"/>
</g>
</svg>
