<?xml version="1.0" encoding="utf-8"?>
<!-- Generator: Adobe Illustrator 14.0.0, SVG Export Plug-In . SVG Version: 6.00 Build 43363)  -->
<!DOCTYPE svg PUBLIC "-//W3C//DTD SVG 1.1//EN" "http://www.w3.org/Graphics/SVG/1.1/DTD/svg11.dtd">
<svg version="1.1" id="Warstwa_1" xmlns="http://www.w3.org/2000/svg" xmlns:xlink="http://www.w3.org/1999/xlink" x="0px" y="0px"
	 width="120px" height="120px" viewBox="0 0 120 120" enable-background="new 0 0 120 120" xml:space="preserve">
<g>
	<path fill="#F5B29A" d="M50.265,8.1c0.168,0.171,0.322,0.356,0.461,0.563l21.084,31.586l1.127,1.684l0.094,0.143l0.826,2.79
		l2.084,7.025l0.094,0.328l-4.197,6.801l-5.268-0.332l-2.836-0.174l-8.053-6.039l-2.562-1.923l-3.896-2.924l-0.548-0.419
		l-0.002-0.003L23.865,28.31c-1.771-1.405-2.082-3.979-0.69-5.757c0.104-0.133,0.218-0.259,0.333-0.376
		c1.373-1.373,3.555-1.613,5.199-0.506l26.994,17.847c0.971,0.65,2.174-0.404,1.658-1.45l-13.2-25.586
		c-0.881-1.783-0.239-3.947,1.474-4.961C47.153,6.621,49.058,6.892,50.265,8.1"/>
	<path fill="#F5B29A" d="M75.977,43.267l15.388,38.512l-6.8,6.801L71.131,75.146c0,0-2.936,0.735-10.23,0.143
		c-6.185-0.504-12.498-6.23-15.92-9.875c-1.636-1.73-2.61-2.994-2.61-2.994l1.387-2.744l1.932-1.887l7.436-7.235l0.74-0.72
		l11.519-11.213L68.76,40.1l4.18,1.833l1.033,0.454L75.977,43.267z"/>
	<path opacity="0.6" fill="#CD8B7A" enable-background="new    " d="M75.979,43.265l-0.926-0.41l-1.09-1.029l-1.418,1.67
		c-0.322-1.795-0.713-2.996-0.713-2.996s-1.406-1.471-3.057-0.147c-0.133,0.099-0.262,0.222-0.396,0.36
		c-1.199,1.275-2.844,3.389-5.852,6.278c-0.105,0.108-0.225,0.218-0.34,0.327c-1.328,1.258-2.906,2.662-4.816,4.199
		c-0.141,0.113-0.248,0.252-0.326,0.404c-0.141-0.09-0.318-0.205-0.523-0.338l-0.068-0.043c-0.657-0.418-1.596-1.004-2.596-1.6
		l-0.066-0.039c0,0-2.643-1.704-4.57-2.272c-0.965,0.366-1.73,0.806-2.343,1.281l4.106,3.72l-7.23,7.043l-1.389,2.746
		c0,0,4.509,5.813,10.313,9.631c2.722-0.06,8.217-1.383,14.819-9.479c0,0,0.959,6.289,9.064,9.406
		c3.236,1.244,6.115-1.938,8.398-6.218l-7.773-19.465l0.793-0.669l-1.705-1.61L75.979,43.265z"/>
	<path fill="#F5B29A" d="M57.331,64.917c0,0,0.806,0.752,0.529,2.062c-0.031,0.168-0.08,0.34-0.15,0.521
		c-0.208,0.541-0.606,1.154-1.285,1.838c-2.723,2.723-4.423,1.021-14.057-6.914c0,0-2.467-3.629,1.449-6.412
		c0.123-0.094,0.258-0.186,0.396-0.271c0.22-0.135,0.448-0.271,0.7-0.4L57.331,64.917z"/>
	<path fill="#F5B29A" d="M62.191,57.353c0,0,0.006,0.006,0.016,0.017c0.252,0.258,2.826,2.987,1.037,5.498
		c-1.699,2.401-3.591,3.129-5.914,2.051l-12.416-9.58c0,0-1.375-3.805,1.967-6.427c0.611-0.476,1.378-0.915,2.343-1.281l3.897,2.926
		l2.656,1.989L62.191,57.353z"/>
	<path opacity="0.6" fill="#CD8B7A" enable-background="new    " d="M57.331,64.917c0,0,0.806,0.752,0.529,2.062l-14.043-10.97
		c0.125-0.094,0.258-0.186,0.396-0.271c0.22-0.135,0.449-0.27,0.701-0.399L57.331,64.917z"/>
	<path fill="#F5B29A" d="M71.328,67.354l17.23,17.229L98.875,74.27L84.932,60.326L81.855,44.43c-0.199-1.021-0.97-1.84-1.977-2.098
		l-7.855-2.023c-1.123-0.289-2.299,0.164-2.939,1.127C67.6,43.665,64.412,47.85,59.2,51.844c-0.569,0.437-0.674,1.244-0.242,1.814
		c1.563,2.065,5.636,5.899,11.806,0.772C70.762,54.431,66.623,61.291,71.328,67.354"/>
</g>
</svg>
