<?xml version="1.0" encoding="utf-8"?>
<!-- Generator: Adobe Illustrator 14.0.0, SVG Export Plug-In . SVG Version: 6.00 Build 43363)  -->
<!DOCTYPE svg PUBLIC "-//W3C//DTD SVG 1.1//EN" "http://www.w3.org/Graphics/SVG/1.1/DTD/svg11.dtd">
<svg version="1.1" id="Warstwa_1" xmlns="http://www.w3.org/2000/svg" xmlns:xlink="http://www.w3.org/1999/xlink" x="0px" y="0px"
	 width="120px" height="120px" viewBox="0 0 120 120" enable-background="new 0 0 120 120" xml:space="preserve">
<g>
	<path fill="#F5B29A" d="M78.783,48.612l7.729,19.341L92,81.69l-6.801,6.804L71.766,75.062c0,0-2.935,0.735-10.229,0.142
		c-7.37-0.603-14.905-8.603-17.548-11.67L24.314,50.062c-1.528-1.047-1.916-3.147-0.834-4.676c1.039-1.474,3.107-1.779,4.627-0.811
		l17.552,11.197c0.291,0.186,0.676,0.119,0.891-0.155c0.229-0.294,0.177-0.722-0.119-0.948L24.299,36.81
		c-1.641-1.252-1.946-3.61-0.657-5.248c1.241-1.574,3.558-1.789,5.19-0.625l21.532,16.263c0.226,0.161,0.527,0.166,0.759,0.01
		c0.358-0.246,0.391-0.767,0.063-1.051L27.814,24.226c-1.776-1.399-2.084-3.976-0.69-5.758c1.33-1.695,3.739-2.08,5.532-0.88
		L55.95,38.332c0.975,0.651,1.368-0.313,0.852-1.36l-15.664-20.24c-0.737-1.491-0.411-3.248,0.718-4.377
		c0.223-0.221,0.473-0.418,0.754-0.584c1.733-1.026,3.966-0.523,5.096,1.144l15.934,18.321l1.369,1.57l1.996,2.295
		c1.258,0.815,2.727,2.129,4.875,3.605c1.137,0.781,2.463,1.604,4.051,2.432C78.875,42.666,79.244,45.735,78.783,48.612"/>
	<path fill="#F5B29A" d="M89.029,25.438c-2.471-0.793-6.402-0.856-9.527,2.269c-3.91,3.911-3.57,7.937-3.57,7.937
		s-2.848,2.647-4.025,7.084c0,0-12.012,12.471,0.062,24.543l17.229,17.229l10.313-10.314L85.57,60.243l-1.482-7.66
		c-0.182-2.938-0.328-8.122,0.52-11.895c0,0,3.07-8.528,5.4-12.824C90.512,26.927,90.041,25.765,89.029,25.438"/>
	<path opacity="0.6" fill="#CD8B7A" enable-background="new    " d="M63.643,31.235l1.367,1.57
		C47.861,51.11,45.765,61.138,45.572,62.33C46.912,49.825,61.17,33.912,63.643,31.235"/>
	<path opacity="0.6" fill="#CD8B7A" enable-background="new    " d="M71.965,67.269c-12.073-12.071-0.059-24.543-0.059-24.543
		c0.32-1.201,0.764-2.269,1.238-3.189c-0.441-0.279-0.869-0.559-1.265-0.827c-0.627,1.289-1.373,2.884-1.647,3.71
		c0,0-14.228,12.785,1.817,24.938L71.965,67.269z"/>
</g>
</svg>
