<?xml version="1.0" encoding="utf-8"?>
<!-- Generator: Adobe Illustrator 14.0.0, SVG Export Plug-In . SVG Version: 6.00 Build 43363)  -->
<!DOCTYPE svg PUBLIC "-//W3C//DTD SVG 1.1//EN" "http://www.w3.org/Graphics/SVG/1.1/DTD/svg11.dtd">
<svg version="1.1" id="Warstwa_1" xmlns="http://www.w3.org/2000/svg" xmlns:xlink="http://www.w3.org/1999/xlink" x="0px" y="0px"
	 width="120px" height="120px" viewBox="0 0 120 120" enable-background="new 0 0 120 120" xml:space="preserve">
<path fill="#F5B29A" d="M68.518,36.62l17.404,43.558l-7.691,7.689L63.037,72.678c0,0-3.317,0.832-11.568,0.158
	c-5.091-0.414-10.254-3.949-14.181-7.434L37.286,65.4c-4.044-3.59-6.778-7.116-6.778-7.116l1.57-3.106l5.108-4.97l7.392-7.201
	l-1.798-1.476l4.544-12.115l0.044-2.143l0.027-1.127c0,0,2.433-2.82,7.886-0.193c0,0,5.637,3.716,10.511,9.104
	c0.178,0.192,0.342,0.388,0.509,0.589l1.463,0.638L68.518,36.62z"/>
<path opacity="0.6" fill="#CD8B7A" enable-background="new    " d="M68.859,37.471l1.928,1.82l-0.896,0.757l8.793,22.015
	c-2.588,4.838-5.84,8.438-9.5,7.031C60.014,65.572,58.93,58.455,58.93,58.455c-7.468,9.158-13.68,10.656-16.763,10.723
	c-6.563-4.318-11.658-10.891-11.658-10.891l1.568-3.108l12.498-12.17l-1.798-1.478l1.977-5.26l7.508,8.974l7.5-2.623l6.476-7.631
	l1.236,1.167l1.045,0.461L68.859,37.471z"/>
<path fill="#F5B29A" d="M64.884,36.831c-1.141-1.042-2.674-2.364-4.292-3.723c-3.391-2.854-7.166-5.874-8.571-6.816
	c-2.644-1.784-5.145-1.3-7.168,1.2c-2.014,2.501-1.197,5.243-1.197,5.243l9.874,7.881l6.326,5.049c0,0,0.15,0.205,0.328,0.565
	c1.996,0.682,3.47,0.631,4.544,0.146c3.129-1.412,2.86-6.476,2.052-7.634C66.54,38.405,65.852,37.72,64.884,36.831"/>
<path fill="#F5B29A" d="M53.53,40.616l-9.873-7.881c-0.788,0.235-1.465,0.519-2.051,0.851c-4.829,2.678-3.344,7.969-3.344,7.969
	L52.927,52.55c0,0,0.382,0.376,0.804,0.987c1.645,0.871,3.949,1.441,5.644-0.752c1.036-1.333,1.402-2.616,1.438-3.708
	c0.047-1.253-0.33-2.262-0.628-2.846c-0.178-0.359-0.328-0.565-0.328-0.565L53.53,40.616z"/>
<path fill="#F5B29A" d="M48.027,63.502c-0.164,0.729-0.627,1.604-1.621,2.6c-3.078,3.076-5.001,1.153-15.897-7.818
	c0,0-2.722-4,1.478-7.138c0.4-0.301,0.867-0.595,1.409-0.877L47.43,61.105C47.43,61.105,48.366,61.982,48.027,63.502"/>
<path fill="#F5B29A" d="M52.928,52.55c0,0,1.464,1.434,1.826,3.273c0.181,0.928,0.084,1.958-0.631,2.962
	c-1.923,2.713-4.061,3.537-6.693,2.32L33.394,50.27c0,0-1.699-4.688,2.748-7.642c0.59-0.397,1.29-0.756,2.121-1.074L52.928,52.55z"
	/>
<path opacity="0.6" fill="#CD8B7A" enable-background="new    " d="M52.928,52.55c0,0,1.464,1.434,1.826,3.273L36.141,42.627
	c0.59-0.397,1.29-0.756,2.121-1.075L52.928,52.55z"/>
<path opacity="0.6" fill="#CD8B7A" enable-background="new    " d="M48.027,63.502L31.986,51.147c0.4-0.301,0.867-0.595,1.409-0.877
	L47.43,61.107C47.43,61.105,48.366,61.982,48.027,63.502"/>
<path opacity="0.6" fill="#CD8B7A" enable-background="new    " d="M66.299,35.647c-0.169-0.201-0.335-0.397-0.51-0.589
	c-4.873-5.388-10.512-9.104-10.512-9.104c-3.128-1.506-5.255-1.22-6.507-0.703c1.042-0.039,2.134,0.286,3.251,1.041
	c1.405,0.942,5.18,3.962,8.571,6.816c-0.15,0.112-0.296,0.25-0.446,0.407c-1.358,1.441-3.216,3.831-6.616,7.099l-9.874-7.881
	c-0.789,0.235-1.464,0.52-2.047,0.851l10.437,8.421c-1.257,1.151-2.693,2.394-4.351,3.728c-0.476,0.384-0.658,1.035-0.432,1.602
	c0.177,0.435,0.44,0.984,0.814,1.581l4.849,3.633c0,0,0.38,0.376,0.804,0.986c1.645,0.871,3.95,1.442,5.645-0.752
	c0.546-0.705,0.897-1.392,1.12-2.048c-5.787,3.392-9.642-0.275-11.226-2.369c-0.487-0.643-0.367-1.559,0.274-2.051
	c1.408-1.079,2.68-2.169,3.833-3.24l7.438,6c0.072-2.019-0.958-3.411-0.958-3.411l-5.021-4.007c2.851-2.863,4.789-5.463,5.887-7.11
	c0.194-0.291,0.432-0.538,0.698-0.74c1.306,1.106,2.521,2.163,3.464,3.023c0.438,0.402,0.809,0.755,1.117,1.061l1.762-1.608
	L66.299,35.647z"/>
<path fill="#F5B29A" d="M63.266,63.861l19.483,19.486l11.665-11.666L78.648,55.914l-3.48-17.98
	c-0.223-1.156-1.091-2.081-2.232-2.374l-8.887-2.287c-1.27-0.327-2.601,0.183-3.326,1.274c-1.68,2.521-5.283,7.254-11.179,11.769
	c-0.64,0.492-0.761,1.408-0.274,2.05c1.77,2.341,6.372,6.677,13.351,0.878C62.621,49.247,57.943,57,63.266,63.861"/>
</svg>
