<?xml version="1.0" encoding="utf-8"?>
<!-- Generator: Adobe Illustrator 16.0.3, SVG Export Plug-In . SVG Version: 6.00 Build 0)  -->
<!DOCTYPE svg PUBLIC "-//W3C//DTD SVG 1.1//EN" "http://www.w3.org/Graphics/SVG/1.1/DTD/svg11.dtd">
<svg version="1.1" id="Warstwa_1" xmlns="http://www.w3.org/2000/svg" xmlns:xlink="http://www.w3.org/1999/xlink" x="0px" y="0px"
	 width="210px" height="72px" viewBox="0 0 210 72" enable-background="new 0 0 210 72" xml:space="preserve">
<path opacity="0.2" fill="#49BEB7" d="M211.169,28.041C143.48,1.241,68.125,1.241,0.437,28.041
	c8.076,5.032,15.776,10.393,23.083,16.042c-2.524,8.886-4.584,17.78-6.184,26.643c56.832-22.502,120.101-22.502,176.932,0
	c-1.599-8.862-3.658-17.757-6.183-26.643C195.394,38.434,203.093,33.073,211.169,28.041z"/>
<path fill="#FF8A5C" d="M210.71,21.363c-67.688-26.799-143.044-26.799-210.732,0c8.076,5.032,15.776,10.393,23.083,16.042
	c-2.525,8.886-4.584,17.78-6.184,26.642c56.832-22.501,120.101-22.501,176.932,0c-1.599-8.861-3.658-17.756-6.183-26.642
	C194.935,31.755,202.634,26.395,210.71,21.363z"/>
</svg>
